<?xml version="1.0" standalone="no"?>
<!DOCTYPE svg PUBLIC "-//W3C//DTD SVG 20010904//EN"
 "http://www.w3.org/TR/2001/REC-SVG-20010904/DTD/svg10.dtd">
<svg version="1.0" xmlns="http://www.w3.org/2000/svg"
 width="282.000000pt" height="209.000000pt" viewBox="0 0 282.000000 209.000000"
 preserveAspectRatio="xMidYMid meet">
<metadata>
Created by potrace 1.16, written by Peter Selinger 2001-2019
</metadata>
<g transform="translate(0.000000,209.000000) scale(0.100000,-0.100000)"
fill="#000000" stroke="none">
<path d="M955 1381 c-3 -6 -14 -60 -26 -122 -15 -87 -24 -115 -42 -130 -21
-18 -21 -20 -5 -33 17 -12 17 -19 -2 -126 -12 -62 -18 -120 -16 -127 4 -10 19
-13 48 -11 43 3 43 3 53 53 13 64 20 75 51 75 26 0 36 -16 50 -85 8 -37 12
-40 45 -43 56 -5 60 8 37 136 -20 110 -20 113 -2 127 18 14 18 15 -4 33 -18
14 -27 39 -42 127 -11 61 -22 116 -25 123 -5 14 -111 17 -120 3z"/>
<path d="M1296 1365 c-14 -13 -31 -36 -36 -50 -6 -15 -10 -108 -10 -208 0
-160 2 -185 19 -210 26 -40 53 -56 103 -63 49 -6 95 17 125 62 18 29 31 189
19 239 -6 25 -9 26 -69 23 l-62 -3 -3 -37 c-2 -29 2 -40 17 -50 17 -10 21 -23
21 -63 0 -53 -12 -75 -42 -75 -32 0 -39 34 -36 196 3 137 5 158 21 168 26 17
51 -5 57 -50 5 -38 6 -39 47 -42 38 -3 43 -1 49 23 11 43 -5 96 -41 132 -30
30 -38 33 -93 33 -49 0 -64 -4 -86 -25z"/>
<path d="M1702 1378 c-13 -17 -96 -514 -88 -533 7 -19 69 -20 84 -2 5 6 13 33
16 59 5 34 12 49 27 53 44 14 69 -13 69 -76 0 -14 5 -30 12 -37 18 -18 77 -15
85 4 5 14 -71 498 -84 531 -7 17 -107 17 -121 1z"/>
</g>
</svg>
